<svg id="_x33_0" enable-background="new 0 0 57.72 58" height="300" viewBox="0 0 57.72 58" width="300" xmlns="http://www.w3.org/2000/svg" version="1.1" xmlns:xlink="http://www.w3.org/1999/xlink" xmlns:svgjs="http://svgjs.dev/svgjs"><g width="100%" height="100%" transform="matrix(1,0,0,1,0,0)"><g><path d="m52 52c-2.484 0-4.64 1.684-5.243 4.093l-.477 1.907h11.44l-.477-1.907c-.603-2.409-2.759-4.093-5.243-4.093z" fill="#ffffff" fill-opacity="1" data-original-color="#000000ff" stroke="none" stroke-opacity="1"/><path d="m52 50c2.206 0 4-1.794 4-4h-8c0 2.206 1.794 4 4 4z" fill="#ffffff" fill-opacity="1" data-original-color="#000000ff" stroke="none" stroke-opacity="1"/><path d="m52 42c-1.474 0-2.75.81-3.444 2h6.888c-.694-1.19-1.97-2-3.444-2z" fill="#ffffff" fill-opacity="1" data-original-color="#000000ff" stroke="none" stroke-opacity="1"/><path d="m52 29c2.206 0 4-1.794 4-4h-8c0 2.206 1.794 4 4 4z" fill="#ffffff" fill-opacity="1" data-original-color="#000000ff" stroke="none" stroke-opacity="1"/><path d="m52 21c-1.474 0-2.75.81-3.444 2h6.887c-.693-1.19-1.969-2-3.443-2z" fill="#ffffff" fill-opacity="1" data-original-color="#000000ff" stroke="none" stroke-opacity="1"/><path d="m52 31c-2.484 0-4.64 1.684-5.243 4.093l-.477 1.907h11.44l-.477-1.907c-.603-2.409-2.759-4.093-5.243-4.093z" fill="#ffffff" fill-opacity="1" data-original-color="#000000ff" stroke="none" stroke-opacity="1"/><path d="m52 8c2.206 0 4-1.794 4-4h-8c0 2.206 1.794 4 4 4z" fill="#ffffff" fill-opacity="1" data-original-color="#000000ff" stroke="none" stroke-opacity="1"/><path d="m57.243 14.093c-.603-2.41-2.759-4.093-5.243-4.093s-4.64 1.683-5.243 4.093l-.477 1.907h11.44z" fill="#ffffff" fill-opacity="1" data-original-color="#000000ff" stroke="none" stroke-opacity="1"/><path d="m52 0c-1.474 0-2.75.81-3.444 2h6.887c-.693-1.19-1.969-2-3.443-2z" fill="#ffffff" fill-opacity="1" data-original-color="#000000ff" stroke="none" stroke-opacity="1"/><path d="m17 52c.274 0 .543-.021.813-.041l-.66-3.959h-.306l-.66 3.959c.27.02.539.041.813.041z" fill="#ffffff" fill-opacity="1" data-original-color="#000000ff" stroke="none" stroke-opacity="1"/><path d="m17.719 44.681-.719-.48-.719.48.44 1.319h.558z" fill="#ffffff" fill-opacity="1" data-original-color="#000000ff" stroke="none" stroke-opacity="1"/><path d="m30 24c1.103 0 2-.897 2-2s-.897-2-2-2z" fill="#ffffff" fill-opacity="1" data-original-color="#000000ff" stroke="none" stroke-opacity="1"/><path d="m28 14h-11.615c-1.943 0-3.76-.629-5.253-1.712l-2.232.637c-1.512.432-2.615 1.721-2.85 3.243.3-.1.616-.168.95-.168h20c.352 0 .686.072 1 .184z" fill="#ffffff" fill-opacity="1" data-original-color="#000000ff" stroke="none" stroke-opacity="1"/><path d="m19.411 37.767c-.782.147-1.586.233-2.411.233s-1.629-.086-2.411-.233l-.424 1.697 2.835 1.418 2.836-1.418z" fill="#ffffff" fill-opacity="1" data-original-color="#000000ff" stroke="none" stroke-opacity="1"/><path d="m3.306 18.07c.226-.04.456-.07.694-.07v-1.229c0-2.665 1.789-5.037 4.352-5.769l1.079-.308c-.556-.688-1.017-1.467-1.359-2.323l1.857-.743c1.061 2.656 3.596 4.372 6.456 4.372h11.493c-.361-1.453-1.495-2.624-3.001-3l-.119-.03.484-1.94.119.03c2.732.682 4.639 3.125 4.639 5.94v1 4c.238 0 .468.03.695.07l.417-1.042c.589-1.473.888-3.024.888-4.611 0-6.847-5.569-12.417-12.416-12.417h-5.168c-6.847 0-12.416 5.57-12.416 12.416 0 1.588.299 3.139.889 4.611z" fill="#ffffff" fill-opacity="1" data-original-color="#000000ff" stroke="none" stroke-opacity="1"/><path d="m31.128 35.148c-.474-1.143-.224-2.396.65-3.27l.071-.071-2.572-2.572c-.475 1.372-1.17 2.638-2.048 3.759 1.787 2.281 2.771 5.088 2.771 8.006 0 7.168-5.832 13-13 13s-13-5.832-13-13c0-2.917.984-5.724 2.771-8.005-.878-1.121-1.573-2.388-2.048-3.759l-2.573 2.572.071.071c.874.874 1.123 2.127.65 3.27-.473 1.141-1.534 1.851-2.77 1.851h-.101v8h.101c1.236 0 2.298.71 2.771 1.852.473 1.143.224 2.396-.65 3.27l-.072.07 5.657 5.657.071-.071c.873-.873 2.126-1.122 3.27-.65 1.142.473 1.852 1.535 1.852 2.771v.101h8v-.101c0-1.236.71-2.299 1.852-2.771 1.144-.472 2.396-.223 3.27.65l.071.071 5.657-5.657-.071-.071c-.874-.874-1.123-2.127-.65-3.27.473-1.141 1.534-1.851 2.77-1.851h.101v-8h-.101c-1.236 0-2.298-.71-2.771-1.852z" fill="#ffffff" fill-opacity="1" data-original-color="#000000ff" stroke="none" stroke-opacity="1"/><path d="m4 24v-4c-1.103 0-2 .897-2 2s.897 2 2 2z" fill="#ffffff" fill-opacity="1" data-original-color="#000000ff" stroke="none" stroke-opacity="1"/><path d="m11.42 41.242c-2.156.609-3.851 2.404-4.241 4.684 1.405 2.789 3.957 4.895 7.036 5.703l.758-4.548-.417-1.25-1.027.685z" fill="#ffffff" fill-opacity="1" data-original-color="#000000ff" stroke="none" stroke-opacity="1"/><path d="m21 26c-1.654 0-3-1.346-3-3v-5h-2v5c0 1.654-1.346 3-3 3h-6.949c.507 5.598 5.221 10 10.949 10s10.442-4.402 10.949-10zm-2.236 6h-4.764v-2h4.764c.998 0 1.896-.555 2.342-1.447l1.789.895c-.789 1.573-2.372 2.552-4.131 2.552z" fill="#ffffff" fill-opacity="1" data-original-color="#000000ff" stroke="none" stroke-opacity="1"/><path d="m14 23v-5h-7c-.552 0-1 .449-1 1v1 4h7c.552 0 1-.449 1-1zm-4-1c-.552 0-1-.448-1-1s.448-1 1-1 1 .448 1 1-.448 1-1 1z" fill="#ffffff" fill-opacity="1" data-original-color="#000000ff" stroke="none" stroke-opacity="1"/><path d="m28 20v-1c0-.551-.448-1-1-1h-7v5c0 .551.448 1 1 1h7zm-4 2c-.552 0-1-.448-1-1s.448-1 1-1 1 .448 1 1-.448 1-1 1z" fill="#ffffff" fill-opacity="1" data-original-color="#000000ff" stroke="none" stroke-opacity="1"/><path d="m13.655 41.446.816 2.038 1.397-.932z" fill="#ffffff" fill-opacity="1" data-original-color="#000000ff" stroke="none" stroke-opacity="1"/><path d="m26.821 45.926c-.39-2.28-2.085-4.075-4.241-4.684l-2.109 5.273-1.027-.685-.417 1.25.758 4.548c3.08-.807 5.632-2.913 7.036-5.702z" fill="#ffffff" fill-opacity="1" data-original-color="#000000ff" stroke="none" stroke-opacity="1"/><path d="m20.345 41.446-2.213 1.106 1.397.932z" fill="#ffffff" fill-opacity="1" data-original-color="#000000ff" stroke="none" stroke-opacity="1"/><path d="m40 10v19h-8.13l2 2h6.13v19c0 1.103.897 2 2 2h4v-2h-4v-19h4v-2h-4v-19h4v-2h-4c-1.103 0-2 .897-2 2z" fill="#ffffff" fill-opacity="1" data-original-color="#000000ff" stroke="none" stroke-opacity="1"/></g></g></svg>