<?xml version="1.0" standalone="no"?>
<!DOCTYPE svg PUBLIC "-//W3C//DTD SVG 20010904//EN"
 "http://www.w3.org/TR/2001/REC-SVG-20010904/DTD/svg10.dtd">
<svg version="1.0" xmlns="http://www.w3.org/2000/svg"
 width="249.000000pt" height="310.000000pt" viewBox="0 0 249.000000 310.000000"
 preserveAspectRatio="xMidYMid meet">

<g transform="translate(0.000000,310.000000) scale(0.100000,-0.100000)"
fill="#FFFFFF" stroke="none">
<path d="M759 2915 c-29 -16 -59 -70 -59 -107 0 -37 37 -88 76 -104 24 -10 51
-13 82 -9 59 9 240 52 292 70 l40 14 2 -182 3 -182 45 0 45 0 3 178 c1 97 6
177 11 177 5 0 60 -13 122 -30 170 -45 225 -53 263 -40 70 23 102 93 73 162
-22 53 -65 72 -146 65 -66 -6 -218 -42 -322 -77 -56 -19 -57 -19 -113 1 -94
33 -297 79 -346 79 -25 -1 -57 -7 -71 -15z"/>
<path d="M1185 2328 c-213 -289 -355 -647 -343 -868 l3 -65 395 0 395 0 3 50
c10 140 -49 357 -153 566 -77 154 -223 379 -246 379 -5 0 -29 -28 -54 -62z"/>
<path d="M1395 2338 c136 -80 275 -244 359 -423 46 -96 102 -282 122 -395 9
-58 20 -109 24 -113 4 -4 82 -4 173 -1 l167 7 0 37 c0 50 -27 191 -49 260 -87
265 -307 498 -568 603 -89 35 -217 67 -270 67 -24 0 -18 -6 42 -42z"/>
<path d="M985 2350 c-416 -104 -723 -454 -751 -857 l-7 -93 171 0 171 0 10 58
c56 296 144 514 277 680 61 76 173 172 242 206 17 9 32 19 32 21 0 10 -78 2
-145 -15z"/>
<path d="M345 1333 c-74 -16 -115 -63 -116 -134 -2 -69 21 -200 42 -241 10
-20 40 -54 66 -75 54 -44 113 -131 143 -210 26 -70 137 -227 226 -320 180
-189 355 -282 562 -300 232 -20 496 143 664 408 45 71 112 201 134 258 32 84
57 123 125 197 67 73 77 100 86 246 5 89 3 111 -10 132 -33 50 -178 57 -308
16 -31 -10 -82 -21 -115 -25 -32 -4 -72 -11 -89 -15 -16 -5 -123 -16 -237 -25
-188 -14 -228 -14 -425 0 -284 20 -295 21 -588 74 -112 21 -125 22 -160 14z"/>
</g>
</svg>
