<?xml version="1.0" standalone="no"?>
<!DOCTYPE svg PUBLIC "-//W3C//DTD SVG 20010904//EN"
 "http://www.w3.org/TR/2001/REC-SVG-20010904/DTD/svg10.dtd">
<svg version="1.0" xmlns="http://www.w3.org/2000/svg"
 width="100.000000pt" height="100.000000pt" viewBox="0 0 100.000000 100.000000"
 preserveAspectRatio="xMidYMid meet">

<g transform="translate(0.000000,100.000000) scale(0.100000,-0.100000)"
fill="#FFFFFF" stroke="none">
<path d="M100 940 c-31 -43 -50 -95 -50 -135 0 -39 22 -100 46 -126 13 -14 13
-20 0 -51 -9 -20 -18 -64 -22 -100 -13 -130 33 -245 141 -354 75 -76 148 -117
240 -137 174 -36 407 131 470 340 19 62 19 150 0 223 -15 57 -14 59 10 101 41
73 33 165 -21 236 l-24 32 -43 -28 c-23 -15 -63 -36 -88 -45 -45 -17 -48 -17
-115 4 -91 28 -190 28 -275 0 -75 -25 -100 -21 -191 34 l-58 34 -20 -28z m83
-155 c-20 -24 -40 -42 -44 -39 -15 9 -21 69 -10 97 l10 27 41 -21 40 -21 -37
-43z m702 54 c6 -29 -1 -99 -10 -99 -2 0 -22 19 -44 42 l-39 43 36 21 c49 29
49 29 57 -7z m-403 -44 c6 -65 15 -79 52 -69 20 5 25 11 20 23 -13 32 -17 101
-5 101 6 0 11 -7 11 -15 0 -7 5 -37 11 -65 8 -36 15 -50 27 -50 36 0 43 14 33
61 -5 24 -8 45 -6 47 1 2 25 -8 52 -21 107 -55 183 -174 186 -290 l2 -62 -44
2 c-24 1 -49 7 -54 12 -12 12 -47 -14 -47 -34 0 -15 70 -45 106 -45 14 0 23
-4 19 -10 -9 -14 -56 -12 -87 4 -24 13 -28 12 -42 -3 -9 -10 -16 -22 -16 -28
0 -13 71 -43 103 -43 20 -1 21 -1 4 -11 -14 -8 -31 -7 -64 4 -44 15 -47 14
-64 -6 -17 -21 -17 -23 -1 -35 9 -7 29 -16 45 -19 37 -7 34 -19 -7 -33 -68
-22 -148 13 -161 69 -8 35 18 101 39 101 30 0 38 37 22 94 -21 72 -21 73 18
68 42 -5 91 20 114 57 9 15 21 28 26 27 12 -1 30 53 21 62 -3 4 -46 7 -95 7
-85 0 -90 -1 -119 -29 -50 -48 -57 -103 -25 -213 6 -22 4 -23 -49 -23 l-55 0
14 53 c19 72 17 116 -6 154 -31 51 -71 67 -158 60 -41 -3 -76 -8 -79 -11 -10
-9 7 -56 20 -56 7 0 18 -13 24 -29 14 -39 58 -66 109 -66 l42 0 -14 -45 c-19
-61 -17 -86 4 -102 45 -32 55 -99 21 -141 -24 -32 -87 -51 -129 -40 -39 10
-42 25 -7 34 48 13 59 27 41 53 -14 22 -16 23 -59 8 -25 -8 -53 -11 -62 -7
-13 5 -1 12 44 26 35 11 63 23 63 28 0 4 -8 15 -19 25 -16 14 -24 15 -63 5
-26 -7 -53 -9 -64 -4 -18 8 -18 8 1 12 106 20 137 39 106 67 -16 15 -25 16
-61 6 -48 -13 -80 -6 -80 18 0 9 7 48 15 86 23 108 90 198 185 246 22 11 41
20 43 20 3 0 8 -19 11 -42 9 -60 19 -72 51 -64 17 4 25 12 22 20 -3 7 -9 34
-12 60 -6 37 -4 46 8 46 10 0 16 -15 19 -55z m-142 -172 c-1 -27 -1 -27 -15
-9 -14 19 -12 36 6 36 5 0 9 -12 9 -27z m360 13 c0 -8 -4 -18 -10 -21 -5 -3
-10 3 -10 14 0 12 5 21 10 21 6 0 10 -6 10 -14z m-298 -38 c-9 -9 -12 -7 -12
12 0 19 3 21 12 12 9 -9 9 -15 0 -24z m224 5 c-10 -10 -19 5 -10 18 6 11 8 11
12 0 2 -7 1 -15 -2 -18z m-44 -436 c26 -12 47 -25 48 -29 0 -12 -74 -31 -124
-31 -28 1 -71 9 -94 18 l-44 18 39 13 c21 7 52 29 68 48 l30 35 15 -25 c8 -14
36 -35 62 -47z"/>
</g>
</svg>
