<?xml version="1.0" standalone="no"?>
<!DOCTYPE svg PUBLIC "-//W3C//DTD SVG 20010904//EN"
 "http://www.w3.org/TR/2001/REC-SVG-20010904/DTD/svg10.dtd">
<svg version="1.0" xmlns="http://www.w3.org/2000/svg"
 width="300.000000pt" height="300.000000pt" viewBox="0 0 300.000000 300.000000"
 preserveAspectRatio="xMidYMid meet">
<metadata>
Created by potrace 1.13, written by Peter Selinger 2001-2015
</metadata>
<g transform="translate(0.000000,300.000000) scale(0.100000,-0.100000)"
fill="#FFFFFF" stroke="none">
<path d="M440 2533 c-25 -25 -44 -50 -42 -55 1 -4 -1 -8 -5 -8 -11 0 -6 -301
5 -312 10 -10 33 -11 133 -9 l55 1 -1 98 c-1 53 2 104 6 113 7 14 39 16 256
17 l248 1 288 -292 c159 -161 445 -451 635 -645 191 -194 354 -355 363 -357
15 -5 129 37 157 58 9 7 12 154 12 676 l0 667 -48 47 -48 47 -337 0 c-185 0
-337 -3 -337 -7 0 -5 -21 -30 -45 -56 l-45 -48 0 -154 c0 -104 4 -156 11 -161
9 -5 146 -9 190 -5 3 1 5 43 4 94 0 50 1 97 4 102 3 6 6 15 6 20 0 6 82 10
223 11 l222 1 0 -486 -1 -486 -317 322 c-174 177 -429 436 -566 575 -138 139
-263 259 -279 266 -22 9 -118 12 -366 12 l-336 -1 -45 -46z"/>
<path d="M487 1862 c-110 -45 -99 30 -100 -704 0 -354 4 -654 8 -668 4 -13 26
-42 48 -65 l41 -40 333 -1 333 -2 48 53 48 53 0 158 c-1 88 -4 164 -8 170 -7
11 -183 12 -194 1 -3 -3 -7 -57 -8 -119 l-1 -113 -218 0 c-185 0 -220 2 -226
15 -13 26 -7 943 5 947 6 2 26 -13 45 -34 19 -21 47 -48 63 -60 16 -13 26 -23
23 -23 -2 0 81 -87 185 -192 105 -106 196 -192 202 -190 6 2 8 1 4 -3 -3 -4
11 -25 33 -47 21 -22 39 -44 39 -49 0 -5 4 -9 9 -9 5 0 25 -16 44 -35 19 -19
33 -35 31 -35 -3 0 1 -6 8 -14 7 -8 16 -12 21 -9 4 2 7 -3 7 -12 0 -9 5 -13
10 -10 6 3 10 1 10 -5 0 -6 7 -18 15 -26 8 -9 15 -12 15 -8 0 5 10 -5 23 -20
49 -63 334 -345 367 -363 33 -19 56 -20 368 -20 l333 0 50 48 49 48 -2 173 -3
173 -95 0 -95 0 -5 -120 -5 -120 -250 0 -250 0 -110 112 c-60 61 -319 324
-575 583 -256 259 -496 503 -533 541 -38 38 -69 69 -70 68 -1 0 -32 -12 -70
-27z"/>
</g>
</svg>
