<?xml version="1.0" standalone="no"?>
<!DOCTYPE svg PUBLIC "-//W3C//DTD SVG 20010904//EN"
 "http://www.w3.org/TR/2001/REC-SVG-20010904/DTD/svg10.dtd">
<svg version="1.0" xmlns="http://www.w3.org/2000/svg"
 width="626.000000pt" height="626.000000pt" viewBox="0 0 626.000000 626.000000"
 preserveAspectRatio="xMidYMid meet">
<metadata>
Created by potrace 1.13, written by Peter Selinger 2001-2015
</metadata>
<g transform="translate(0.000000,626.000000) scale(0.100000,-0.100000)"
fill="#FFFFFF" stroke="none">
<path d="M198 4958 c-44 -67 -119 -275 -157 -438 -45 -185 -52 -527 -17 -725
32 -175 89 -391 133 -500 91 -223 193 -416 295 -555 26 -36 58 -80 70 -98 81
-119 352 -392 511 -514 399 -307 827 -490 1305 -557 153 -22 343 -37 365 -28
11 4 13 16 5 59 -7 43 -26 397 -28 510 0 22 -11 33 -62 64 -280 170 -608 431
-848 673 -167 169 -339 382 -394 489 -27 53 -18 46 37 -26 119 -158 253 -297
438 -451 115 -96 136 -112 284 -219 143 -103 539 -341 550 -330 1 1 8 59 15
128 16 172 55 406 96 579 34 143 45 180 89 317 l23 72 -51 63 c-143 180 -347
388 -493 504 -20 17 -51 42 -68 56 -260 216 -666 442 -1086 603 -280 107 -962
346 -990 346 -4 0 -14 -10 -22 -22z"/>
<path d="M5185 4924 c-218 -32 -438 -83 -571 -133 -108 -40 -313 -134 -408
-188 -99 -56 -297 -197 -399 -282 -119 -101 -323 -315 -415 -437 -259 -340
-423 -691 -510 -1089 -43 -199 -53 -284 -59 -507 -8 -262 10 -437 69 -673 32
-130 49 -185 58 -184 3 0 34 60 70 132 95 194 171 333 303 552 290 482 625
901 945 1183 98 87 270 214 347 257 59 33 51 23 -25 -32 -73 -53 -249 -212
-328 -297 -83 -90 -232 -269 -295 -359 -236 -329 -412 -640 -647 -1142 -70
-151 -184 -435 -176 -442 7 -7 194 50 356 107 120 43 183 68 325 128 22 9 112
53 200 97 420 211 730 434 1029 739 406 414 666 846 907 1507 29 79 65 180 82
224 46 127 145 411 179 515 17 52 32 100 35 106 14 36 -324 162 -532 199 -87
15 -474 29 -540 19z"/>
</g>
</svg>
