<?xml version="1.0" standalone="no"?>
<!DOCTYPE svg PUBLIC "-//W3C//DTD SVG 20010904//EN"
 "http://www.w3.org/TR/2001/REC-SVG-20010904/DTD/svg10.dtd">
<svg version="1.0" xmlns="http://www.w3.org/2000/svg"
 width="128.000000pt" height="128.000000pt" viewBox="0 0 128.000000 128.000000"
 preserveAspectRatio="xMidYMid meet">
<metadata>
Created by potrace 1.13, written by Peter Selinger 2001-2015
</metadata>
<g transform="translate(0.000000,128.000000) scale(0.100000,-0.100000)"
fill="#000000" stroke="none">
<path d="M23 973 c-25 -66 -24 -198 1 -277 65 -198 264 -354 484 -379 l42 -5
0 62 0 63 -51 32 c-60 40 -161 132 -191 175 -14 20 -2 12 35 -24 31 -30 90
-77 129 -103 l73 -48 8 48 c4 26 14 78 23 115 l16 68 -32 37 c-91 104 -194
166 -391 239 -66 24 -122 44 -124 44 -2 0 -12 -21 -22 -47z"/>
<path d="M998 995 c-187 -47 -354 -213 -403 -400 -17 -69 -20 -203 -4 -259
l11 -39 30 54 c81 144 197 297 261 340 24 17 20 9 -20 -32 -66 -70 -136 -180
-190 -298 -23 -52 -41 -96 -39 -98 6 -7 120 38 193 76 103 54 191 127 254 209
59 79 97 154 150 304 31 87 37 113 27 120 -51 32 -188 44 -270 23z"/>
</g>
</svg>
