<?xml version="1.0" standalone="no"?>
<!DOCTYPE svg PUBLIC "-//W3C//DTD SVG 20010904//EN"
 "http://www.w3.org/TR/2001/REC-SVG-20010904/DTD/svg10.dtd">
<svg version="1.0" xmlns="http://www.w3.org/2000/svg"
 width="310.000000pt" height="261.000000pt" viewBox="0 0 310.000000 261.000000"
 preserveAspectRatio="xMidYMid meet">
<metadata>
Created by potrace 1.13, written by Peter Selinger 2001-2015
</metadata>
<g transform="translate(0.000000,261.000000) scale(0.100000,-0.100000)"
fill="#FFFFFF" stroke="none">
<path d="M705 2583 c-34 -8 -81 -50 -99 -86 -20 -44 -21 -116 0 -145 14 -21
21 -22 168 -22 l153 0 6 -134 c4 -74 4 -142 1 -150 -5 -13 -28 -16 -138 -16
-103 0 -136 -3 -154 -16 l-22 -15 0 -604 c0 -332 -3 -605 -8 -607 -6 -3 -85
-94 -119 -138 -33 -42 -199 -247 -210 -258 -7 -7 -14 -16 -14 -20 -4 -25 -5
-121 -1 -140 l4 -22 1317 2 1316 3 3 76 3 77 -106 128 c-59 71 -140 170 -181
221 l-74 91 0 596 0 595 -22 16 c-17 11 -51 15 -145 15 l-123 0 0 191 c0 206
-8 262 -46 302 -60 65 -18 62 -789 63 -385 1 -709 0 -720 -3z m117 -38 c48
-17 77 -48 96 -104 25 -73 29 -71 -138 -71 l-150 0 -6 27 c-9 35 16 102 48
126 21 15 56 28 99 36 3 1 26 -6 51 -14z m1278 0 c64 -17 103 -54 119 -112 7
-25 11 -277 11 -735 0 -612 2 -698 15 -698 13 0 15 58 17 438 l3 437 60 0 60
0 0 -460 0 -460 -805 0 -805 0 0 460 0 460 78 3 c64 2 77 0 78 -13 1 -8 3 -24
4 -35 1 -11 3 -202 4 -425 1 -353 3 -405 16 -405 13 0 15 83 15 685 0 706 -3
758 -41 821 -10 17 -19 36 -19 42 0 8 164 11 568 12 465 0 577 -3 622 -15z
m-1165 -595 c0 -25 -1 -25 -100 -30 l-100 -5 0 -500 0 -500 845 0 845 0 0 500
0 500 -82 3 -83 3 0 29 0 30 119 0 c99 0 120 -3 125 -16 9 -23 7 -1117 -2
-1132 -7 -10 -198 -12 -923 -10 l-914 3 -3 565 c-1 311 0 571 3 578 3 9 37 12
137 10 l133 -3 0 -25z m1609 -1213 c55 -56 286 -338 286 -349 0 -4 -560 -8
-1245 -8 -685 0 -1245 2 -1245 5 0 6 197 251 268 333 l54 62 920 0 921 0 41
-43z m324 -439 l-3 -43 -1277 -3 -1278 -2 0 45 0 45 1281 0 1280 0 -3 -42z"/>
<path d="M1092 2282 c-9 -7 -12 -59 -10 -228 l3 -219 504 -3 c397 -2 506 0
513 10 13 22 10 422 -4 436 -14 14 -984 17 -1006 4z m976 -134 l-3 -103 -71
-5 c-48 -3 -78 -11 -91 -22 -22 -20 -30 -15 -63 32 -62 90 -85 114 -103 107
-8 -3 -39 -44 -68 -91 -29 -47 -56 -86 -60 -86 -4 0 -17 14 -29 30 -20 28 -26
30 -85 30 -58 0 -66 -3 -81 -25 -9 -14 -20 -25 -25 -25 -4 0 -20 38 -36 85
-35 109 -48 108 -84 -5 -15 -46 -31 -86 -36 -87 -6 -2 -16 3 -23 12 -7 8 -27
15 -44 15 -18 0 -37 5 -44 12 -13 13 -18 209 -5 221 3 4 219 7 480 7 l474 0
-3 -102z m-259 -120 c25 -37 52 -70 60 -73 7 -3 29 9 48 25 31 28 40 31 91 28
l57 -3 0 -70 0 -70 -475 0 -475 0 0 55 c0 52 2 55 26 58 16 2 38 -8 63 -28 21
-16 42 -30 47 -30 4 0 18 32 30 70 13 39 27 69 33 67 5 -2 19 -32 31 -67 12
-35 26 -65 32 -67 5 -2 27 17 47 42 32 39 42 45 75 45 33 0 41 -5 70 -46 18
-25 38 -43 44 -41 7 2 37 43 67 90 33 54 60 87 69 85 8 -2 35 -33 60 -70z"/>
<path d="M1792 1658 c-9 -9 -12 -74 -12 -230 l0 -218 -50 0 -50 0 0 165 0 165
-95 0 -95 0 0 -165 0 -165 -45 0 c-51 0 -47 -11 -45 125 2 118 4 115 -101 115
l-89 0 0 -115 c0 -114 0 -116 -25 -125 -68 -26 -15 -30 406 -30 340 0 430 3
427 13 -3 6 -14 13 -26 15 -22 3 -22 5 -22 217 0 181 -2 216 -16 229 -19 20
-144 22 -162 4z m136 -240 l2 -208 -55 0 -55 0 0 211 0 210 53 -3 52 -3 3
-207z m-288 -58 l0 -150 -55 0 -55 0 0 143 c0 79 3 147 7 150 3 4 28 7 55 7
l48 0 0 -150z m-285 -45 l0 -100 -49 -3 c-32 -2 -52 1 -57 10 -11 16 -12 182
-2 192 4 4 30 6 58 4 l50 -3 0 -100z"/>
<path d="M667 573 c-4 -3 -2 -12 4 -20 9 -11 170 -13 909 -13 494 0 905 3 914
6 9 3 16 12 16 20 0 12 -140 14 -918 14 -505 0 -922 -3 -925 -7z"/>
</g>
</svg>
